<svg xmlns="http://www.w3.org/2000/svg" xml:space="preserve" version="1.1" viewBox="0 0 300 300" style="fill: #D72323;"><path d="M200.3 269.9c-15.7 6.6-32.7 10.1-50.3 10.1-34.7 0-67.4-13.5-91.9-38.1C33.5 217.4 20 184.7 20 150s13.5-67.4 38.1-91.9C82.6 33.5 115.3 20 150 20s67.4 13.5 91.9 38.1C266.5 82.6 280 115.3 280 150c0 17.6-3.5 34.6-10 50.3 5 5 10 10.1 15.1 15.1 9.6-19.8 15-42 15-65.4C300 67.2 232.8 0 150 0S0 67.2 0 150s67.2 150 150 150c23.4 0 45.6-5.4 65.4-15-5.1-5-10.1-10.1-15.1-15.1z"/><path d="M267.8 300c-9.6-1.3-16.5-7-23.1-13.7-14.9-15.3-30.1-30.2-45.2-45.3-9.3-9.3-12-20.1-7.5-32.7.3-.8.3-2.1-.2-2.6-3.9-4.1-7.9-8-12-12.1-6.4 4-13.1 6.7-20.5 7.6-15.5 1.9-29-2.4-40.2-13.2-12.3-11.8-24.2-24-36.2-36.1-3.5-3.5-4.1-7.4-2.2-11.2 1.9-3.7 5.9-6.4 9.7-5.6 2.5.5 5.1 2 6.9 3.8 7.4 7.1 14.5 14.4 21.8 21.6.6.6 1.3 1.2 1.7 1.6l13.8-13.8c-6.2-6.1-12.6-12.5-18.9-18.9-1.9-1.9-3.8-3.7-5.6-5.6-3.8-4.2-3.7-9.7.2-13.6 3.9-3.9 9.5-4.1 13.6-.1 7.5 7.3 14.8 14.7 22.1 22.1.8.8 1.5 1.8 2.1 2.4l14.3-14.3c-2-1.8-4.5-4-6.8-6.3-6-5.9-11.9-11.8-17.8-17.8-2.7-2.7-3.7-5.9-2.4-9.6 1.4-3.9 4.2-6.3 8.3-6.9 3.4-.6 6 1 8.4 3.3l14.7 14.7c7.4 7.4 14.9 14.6 22 22.2 14.7 15.7 17 39.1 6.1 57.7-.4.7-.7 1.4-1.3 2.4 3.9 3.9 7.9 7.8 11.9 11.6.6.5 2 .6 2.8.3 12.5-4.4 23.3-1.7 32.7 7.6 15.1 15.1 30.1 30.3 45.3 45.2 6.7 6.5 12.4 13.4 13.7 23v5.8c-.2.5-.4 1.1-.5 1.6-1.8 9.5-6.6 17-15.5 21.2-3.3 1.6-6.9 2.3-10.4 3.5-1.9.2-3.8.2-5.8.2z"/><path d="M170 219.6c-2.7.7-5.4 1.2-8.2 1.5-3.1.4-6.2.6-9.2.6-17.9 0-34.2-6.6-47.2-19.2-10.2-9.8-20.2-20-30-29.8l-6.6-6.6c-9.5-9.5-11.7-22.7-5.8-34.3 4.9-9.6 14.4-16 24.5-16.6.5-6.9 3.5-13.6 8.9-18.9 5.2-5.1 11.8-8.2 18.7-8.7.2-2.5.7-4.9 1.6-7.4 3.8-10.8 12.6-18.1 23.9-20 1.5-.2 3.1-.4 4.6-.4 5.4 0 13.4 1.6 21.1 9.2 4.7 4.7 9.6 9.5 14.8 14.7 2.1 2.2 4.4 4.4 6.5 6.5 5.3 5.2 10.7 10.6 15.9 16.2 10.2 10.9 16.4 24.5 17.9 39.3.9 8.2.2 16.4-1.8 24.2h.1c12.8 0 24.7 5.1 34.7 14.8 3.6-10.9 5.6-22.6 5.6-34.7 0-60.8-49.2-110-110-110S40 89.2 40 150s49.2 110 110 110c12.1 0 23.8-2 34.7-5.6-9.8-10.1-14.8-22.1-14.7-34.8z"/></svg>